<svg width="274" height="220" viewBox="0 0 274 220" fill="none" xmlns="http://www.w3.org/2000/svg">
<g clip-path="url(#clip0_906_128)">
<path d="M29.0127 119.686C26.1562 119.686 23.3254 119.98 20.5971 120.993C15.7808 122.647 11.6819 126.377 9.8246 131.159C8.01851 135.608 8.68459 140.518 8.55649 145.21H0L0.0384274 156.965L8.55649 156.914V195.873L24.5039 195.796C24.4398 156.812 24.4782 169.811 24.4398 156.812L35.7118 156.85L35.7375 145.146L24.427 145.171C24.5935 141.312 23.4535 136.71 26.3996 133.595C29.4226 130.634 33.957 131.621 37.582 132.698C37.6076 128.48 37.6076 124.249 37.582 120.032C34.7512 119.929 31.8691 119.673 29.0127 119.686ZM199.067 120.929V196.027H214.655V120.929H199.067ZM127.169 143.735C120.675 143.774 114.77 147.71 111.004 152.85C111.029 150.312 111.029 147.761 111.042 145.222H95.223L95.2743 196.053L111.196 196.027C111.196 196.027 111.158 176.554 111.196 166.824C111.055 162.67 113.22 158.132 117.293 156.658C120.15 155.414 123.685 156.106 126.016 158.132C128.207 160.465 128.488 163.837 128.68 166.875C129.039 176.592 128.898 196.053 128.898 196.053L144.717 195.976C144.692 187.63 144.935 179.272 144.436 170.939C144.372 164.157 145.089 156.837 141.528 150.735C138.979 146.094 133.42 144.338 128.488 143.774C128.053 143.735 127.617 143.723 127.182 143.735H127.169ZM63.9944 143.876C57.4489 143.889 50.8138 145.671 44.8576 148.094L44.7935 160.029C51.1212 156.209 58.717 153.607 66.1335 155.286C69.4767 156.235 71.2956 159.658 70.9113 163.004C63.8022 164.068 56.5267 164.619 49.661 166.798C40.0669 170.054 36.4932 183.207 42.347 191.233C46.4971 197.284 54.9511 198.514 61.5735 196.502C65.6083 195.399 68.516 192.245 71.1163 189.156L71.0522 196.053L85.9748 196.079C85.898 184.977 86.1285 173.875 85.8596 162.786C85.7443 155.837 82.209 148.645 75.497 146.005C71.7951 144.517 67.9012 143.889 63.9688 143.902L63.9944 143.876ZM175.267 143.902C171.655 143.889 168.056 144.338 164.572 145.466C160.46 146.902 156.22 149.248 154.324 153.402C151.314 159.35 152.505 167.593 158.103 171.593C163.496 175.054 170.041 176.169 175.485 179.503C177.88 181.041 176.753 184.656 174.319 185.489C167.095 188.399 159.384 185.412 152.851 182.131L152.89 194.963C161.318 197.489 170.438 198.309 179.008 196.053C183.683 194.784 188.269 192.027 190.459 187.541C193.354 182.272 192.726 174.977 188.128 170.862C182.991 166.17 175.831 165.132 169.875 161.965C166.724 160.029 168.658 155.414 171.95 155.119C177.778 154.542 183.773 155.491 189.063 158.029L189.037 145.889C184.554 144.735 179.891 143.941 175.242 143.915L175.267 143.902ZM274 145.146H258.411L247.152 181.426L236.213 145.389L218.524 145.364L238.877 196.104C237.853 199.783 236.572 203.77 233.6 206.373C230.039 209.283 225.325 207.334 221.329 206.629V218.795C226.76 219.91 232.601 220.885 237.917 218.641C245.487 215.885 250.162 208.552 252.775 201.283C259.948 182.772 266.827 163.644 274.013 145.133L274 145.146ZM71.5902 172.016C70.8345 175.887 71.0266 180.4 68.0164 183.374C64.8142 186.746 58.2687 187.387 55.361 183.323C53.555 180.413 54.3235 175.516 57.8716 174.311C62.3292 172.99 67.0045 172.606 71.603 172.029L71.5902 172.016Z" fill="white"/>
<path d="M197.683 14.7299C191.804 6.15349 181.864 0.833285 171.591 0H166.493C158.885 0.858924 151.378 3.74337 145.717 9.0123C128.681 25.6395 112.003 42.6385 94.9542 59.2401C90.9961 55.3429 87.0766 51.4329 83.1442 47.5101C78.9812 43.3564 76.7652 37.2158 77.9949 31.37C79.6601 22.7038 88.588 16.1785 97.3751 17.64C105.842 18.5374 110.402 26.6779 116.499 31.5623L128.77 19.8963C121.136 10.1404 110.837 0.730727 97.7978 0H94.6083C86.2696 0.358953 77.7899 2.99983 71.5391 8.6918C64.3019 15.0119 60.8819 24.6139 59.8315 33.9339V36.8953C60.2286 44.9076 63.6743 52.5995 69.2719 58.3171C86.1543 75.4571 103.216 92.4305 120.265 109.391C123.467 112.545 126.426 116.045 130.346 118.378H133.253C137.557 116.891 140.209 112.942 143.45 110.006C156.002 97.1995 169.093 84.9181 181.339 71.8291L144.602 34.921C148.752 30.7674 152.851 26.5497 157.066 22.4731C160.498 19.0758 165.276 17.1144 170.131 17.499C179.994 17.6272 188.153 27.7163 186.334 37.4081C185.271 45.8307 177.355 50.3945 172.411 56.4582L184.823 68.3037C188.96 64.9065 192.829 60.7272 196.351 56.689C206.163 45.1128 206.663 26.9087 197.683 14.7043V14.7299ZM149.431 69.6498C151.084 80.1492 141.067 90.4819 130.499 89.0461C120.188 88.6871 112.656 77.3929 115.231 67.6371C116.717 61.2144 122.25 55.9967 128.745 54.8942C129.923 54.625 131.114 54.5096 132.306 54.5225C140.606 54.6122 148.56 61.1887 149.419 69.6498H149.431Z" fill="#2699F7"/>
<path d="M139.44 67.7781C136.814 67.7781 134.688 65.65 134.688 63.0219C134.688 62.3169 134.855 61.6118 135.162 60.9836C134.176 60.7016 133.151 60.5605 132.113 60.5605C125.965 60.5605 120.969 65.5474 120.969 71.7137C120.969 77.8672 125.952 82.8669 132.113 82.8669C138.262 82.8669 143.257 77.88 143.257 71.7137C143.257 70.0472 142.886 68.4062 142.169 66.9063C141.374 67.4704 140.414 67.7781 139.44 67.7781Z" fill="#2699F7"/>
</g>
<defs>
<clipPath id="clip0_906_128">
<rect width="274" height="220" fill="white"/>
</clipPath>
</defs>
</svg>
