<svg xmlns="http://www.w3.org/2000/svg" viewBox="54 0 152 110" fill="white">
  <!-- Fansly double-heart icon extracted from official logo, recolored white -->
  <path d="M197.683 14.7299C191.804 6.15349 181.864 0.833285 171.591 0H166.493C158.885 0.858924 151.378 3.74337 145.717 9.0123C128.681 25.6395 112.003 42.6385 94.9542 59.2401C90.9961 55.3429 87.0766 51.4329 83.1442 47.5101C78.9812 43.3564 76.7652 37.2158 77.9949 31.37C79.6601 22.7038 88.588 16.1785 97.3751 17.64C105.842 18.5374 110.402 26.6779 116.499 31.5623L128.77 19.8963C121.136 10.1404 110.837 0.730727 97.7978 0H94.6083C86.2696 0.358953 77.7899 2.99983 71.5391 8.6918C64.3019 15.0119 60.8819 24.6139 59.8315 33.9339V36.8953C60.2286 44.9076 63.6743 52.5995 69.2719 58.3171C86.1543 75.4571 103.216 92.4305 120.265 109.391C123.467 112.545 126.426 116.045 130.346 118.378H133.253C137.557 116.891 140.209 112.942 143.45 110.006C156.002 97.1995 169.093 84.9181 181.339 71.8291L144.602 34.921C148.752 30.7674 152.851 26.5497 157.066 22.4731C160.498 19.0758 165.276 17.1144 170.131 17.499C179.994 17.6272 188.153 27.7163 186.334 37.4081C185.271 45.8307 177.355 50.3945 172.411 56.4582L184.823 68.3037C188.96 64.9065 192.829 60.7272 196.351 56.689C206.163 45.1128 206.663 26.9087 197.683 14.7043V14.7299ZM149.431 69.6498C151.084 80.1492 141.067 90.4819 130.499 89.0461C120.188 88.6871 112.656 77.3929 115.231 67.6371C116.717 61.2144 122.25 55.9967 128.745 54.8942C129.923 54.625 131.114 54.5096 132.306 54.5225C140.606 54.6122 148.56 61.1887 149.419 69.6498H149.431Z" fill="white"/>
  <path d="M139.44 67.7781C136.814 67.7781 134.688 65.65 134.688 63.0219C134.688 62.3169 134.855 61.6118 135.162 60.9836C134.176 60.7016 133.151 60.5605 132.113 60.5605C125.965 60.5605 120.969 65.5474 120.969 71.7137C120.969 77.8672 125.952 82.8669 132.113 82.8669C138.262 82.8669 143.257 77.88 143.257 71.7137C143.257 70.0472 142.886 68.4062 142.169 66.9063C141.374 67.4704 140.414 67.7781 139.44 67.7781Z" fill="white"/>
</svg>