<svg width="104" height="21" viewBox="0 0 104 21" fill="none" xmlns="http://www.w3.org/2000/svg">
<rect x="3.8147e-06" y="0.000320435" width="21.0017" height="21.0017" rx="4.5946" fill="#49F264"/>
<path fill-rule="evenodd" clip-rule="evenodd" d="M6.61118 16.4691C6.16141 16.4691 5.94263 16.0832 6.03442 15.679C6.15375 15.1278 6.77641 13.4924 6.30827 12.7574C5.61983 11.6825 3.90716 11.8387 3.52163 11.2874C3.24376 10.8829 3.49139 10.4893 3.87579 10.2585C4.73864 9.70721 6.40924 9.8634 8.03395 8.77929C8.93351 8.1913 9.75964 6.99694 10.2278 6.28033C10.8887 5.26972 11.1732 5.05841 12.5593 5.05841H17.4139C18.1785 5.05841 18.4179 6.35659 17.1703 6.4993C16.849 6.53605 15.9923 6.66467 14.7715 6.81167C13.6057 6.95866 11.0172 7.30931 12.0361 8.97222C12.7979 9.84502 14.4043 9.73477 14.7715 10.2585C15.037 10.6209 14.8021 11.0065 14.5129 11.1917C13.6409 11.743 11.7791 11.6825 10.1543 12.7574C9.05284 13.4924 8.15711 15.1278 7.78994 15.679C7.52375 16.0832 7.07014 16.4691 6.62036 16.4691H6.61118Z" fill="black"/>
<path d="M103.268 15.3008C102.537 17.8599 100.368 19.3709 97.3702 19.3709C93.5926 19.3709 91.0336 16.6657 91.0336 12.6931C91.0336 8.86674 93.7145 6.08838 97.3702 6.08838C101.684 6.08838 103.439 9.40292 103.463 12.9855C103.463 13.1074 103.463 13.3024 103.439 13.5217H93.7388C93.9582 15.7395 95.3717 17.1043 97.3702 17.1043C98.8081 17.1043 100.027 16.5438 100.465 15.3008H103.268ZM93.7632 11.5232H100.685C100.514 9.71975 99.4662 8.28182 97.3702 8.28182C95.3717 8.28182 94.0313 9.57352 93.7632 11.5232Z" fill="white"/>
<path d="M78.0845 14.3031V6.43111H80.8872V13.7182C80.8872 15.6679 81.5209 16.9353 83.3 16.9353C85.0304 16.9353 86.3464 15.4242 86.3464 12.2803V6.43111H89.1735V19.0312H86.3952V16.8134C85.7128 18.2513 84.5673 19.3724 82.6176 19.3724C79.3274 19.3724 78.0845 17.2034 78.0845 14.3031Z" fill="white"/>
<path d="M67.4691 6.43114C68.5414 9.74567 69.5894 12.914 70.6374 16.2041H70.6618C71.5879 13.1821 72.7333 9.77004 73.7813 6.43114H76.779C75.2192 10.6474 73.7082 14.815 72.1728 19.0312H69.0532L64.447 6.43114H67.4691Z" fill="white"/>
<path d="M52.515 19.0297V6.4296H55.2933V8.64742C55.9514 7.2095 57.1212 6.0884 59.0709 6.0884C62.3367 6.0884 63.604 8.25747 63.604 11.1577V19.0297H60.8013V11.7426C60.8013 9.79288 60.1433 8.52556 58.3885 8.52556C56.6338 8.52556 55.3421 10.0366 55.3421 13.1805V19.0297H52.515Z" fill="white"/>
<path d="M39.626 10.281C39.9428 8.28253 41.6244 6.06471 44.9146 6.06471C49.0821 6.06471 50.2276 8.57499 50.2276 11.2802V16.1302C50.2276 17.0807 50.2764 18.2993 50.4226 19.0304H47.5467C47.498 18.543 47.4736 18.0555 47.4736 17.5437V16.9588H47.4493C47.0349 17.9824 45.9626 19.3472 43.4523 19.3472C40.6008 19.3472 39.0167 17.5925 39.0167 15.594C39.0167 12.1089 43.2817 11.8164 45.1096 11.5239C46.7181 11.2802 47.4493 10.9634 47.4493 9.89105C47.4493 8.89182 46.4988 8.25815 44.9633 8.25815C43.5985 8.25815 42.5993 9.03805 42.3068 10.281H39.626ZM41.8194 15.4965C41.8194 16.4958 42.6724 17.2269 44.1591 17.2269C45.8407 17.2269 47.498 16.1789 47.498 13.1812V11.8652C47.2299 12.5719 46.5719 13.1812 44.4272 13.5955C42.6968 13.9124 41.8194 14.4485 41.8194 15.4965Z" fill="white"/>
<path d="M27.5355 19.0305V1.6292H38.5027V4.1151H30.4845V8.98942H37.8447V11.4509H30.4845V19.0305H27.5355Z" fill="white"/>
</svg>
