<svg xmlns="http://www.w3.org/2000/svg" viewBox="0 0 21 21" fill="white">
  <!-- Fanvue icon extracted from official logo, recolored white -->
  <path fill-rule="evenodd" clip-rule="evenodd" d="M6.61118 16.4691C6.16141 16.4691 5.94263 16.0832 6.03442 15.679C6.15375 15.1278 6.77641 13.4924 6.30827 12.7574C5.61983 11.6825 3.90716 11.8387 3.52163 11.2874C3.24376 10.8829 3.49139 10.4893 3.87579 10.2585C4.73864 9.70721 6.40924 9.8634 8.03395 8.77929C8.93351 8.1913 9.75964 6.99694 10.2278 6.28033C10.8887 5.26972 11.1732 5.05841 12.5593 5.05841H17.4139C18.1785 5.05841 18.4179 6.35659 17.1703 6.4993C16.849 6.53605 15.9923 6.66467 14.7715 6.81167C13.6057 6.95866 11.0172 7.30931 12.0361 8.97222C12.7979 9.84502 14.4043 9.73477 14.7715 10.2585C15.037 10.6209 14.8021 11.0065 14.5129 11.1917C13.6409 11.743 11.7791 11.6825 10.1543 12.7574C9.05284 13.4924 8.15711 15.1278 7.78994 15.679C7.52375 16.0832 7.07014 16.4691 6.62036 16.4691H6.61118Z" fill="white"/>
</svg>